<svg version="1" xmlns="http://www.w3.org/2000/svg" width="266.667" height="266.667" viewBox="0 0 200.000000 200.000000"><path d="M86.5 7.9c-6.3 1.7-7.5 2.4-13 8.2-3.3 3.5-7.2 6.9-8.7 7.6-7.1 3.2-11.3 14.1-11.3 29.4 0 10.3.1 10.9 3.6 17.6l3.6 6.9-2.4 4.8C56.5 86 56.1 87.5 57 88c.7.4.9 1.3.5 2-.4.6.2 2.1 1.2 3.3 3.6 4 6.2 9.2 8.8 17.5 2.2 7.1 3.4 9.1 8.7 14.7 3.3 3.6 5.9 6.7 5.7 6.8-.2.1-2 1-3.9 2-5.2 2.6-7.1 6.7-8.1 17.7-.5 5.2-1.2 10.9-1.5 12.8-.8 3.9 1.3 6.8 5.7 7.7 2.5.6 2.9 1.1 2.9 4 0 1.9-.7 6.4-1.5 10.2-.9 3.7-1.8 7.8-2 9L73 198h28c15.4 0 28-.3 28-.7 0-.4-1-5.3-2.1-11-1.2-5.6-1.9-10.9-1.6-11.7.3-.8 2-1.7 3.7-2.1 4.8-1 6.2-4.1 5-10.5-.5-2.9-1-7.3-1-9.9 0-2.5-.5-6.3-1-8.3-1.1-3.7-5.4-9.8-7-9.8-.5 0-2.1-.5-3.6-1l-2.7-1.1 5.1-4.9c5.4-5.2 8.2-9.8 10.3-17 .7-2.5 1.9-5 2.7-5.7.8-.6 1.1-1.6.8-2.2-.8-1.2 1.6-6.2 3.8-8 2.2-1.9 4.1-12 2.7-14.3-.7-1.1-.9-2.3-.6-2.7.4-.8 1.3-6.9 3-20.4.3-2.6 1-5.8 1.5-7.2 1.4-3.8-1.2-14.4-5.2-20.6-12.1-18.8-33.7-26.9-56.3-21zM74.3 61.2c1.5 2 2.7 3.9 2.7 4.2 0 .3-1.6.6-3.5.6-2.9 0-3.6-.4-4.1-2.5-.7-2.9.4-8.2 1.5-6.9.4.5 1.9 2.6 3.4 4.6zm2.5 11.5c-1 .2-2.6.2-3.5 0-1-.3-.2-.5 1.7-.5s2.7.2 1.8.5zm23.5 4.4c2.1.5 3.5 1.4 3.2 2-.6.9-8.5 1.4-8.5.5 0-.2-.3-1.1-.6-2-.7-1.9.6-2 5.9-.5zm2.5 10.4c3.1 8.7 6.2 14.1 9.6 16.3 4.3 2.9 10.6 3.9 14.6 2.2 1.7-.7 3.3-1 3.6-.8.4.5-5.9 12.5-7.6 14.2-.4.4-1.7-1.3-2.9-3.8-1.7-4-2.8-5-7.1-6.8-3.9-1.6-4.8-2.4-3.9-3.4 2.7-3.3-3.7-3.8-7.4-.5-1.7 1.4-2.1 1.4-4.9-.2-1.6-.9-4.1-1.7-5.4-1.7-2.1 0-2.4.4-1.9 2 .5 1.5-.1 2.2-2.7 3.3-3.7 1.6-8.8 7-8.8 9.4 0 3.4-4.4-2.3-6.9-8.9-.8-2.2-.7-2.3 5.4-2.3 4.9 0 7-.5 9.2-2.1 4-3 7.1-7.9 8.9-14.3 2.1-7.1 2.2-7.3 4.7-6.9 1.5.2 2.6 1.6 3.5 4.3zM142 89c0 .5-.4 1-1 1-.5 0-1-.5-1-1 0-.6.5-1 1-1 .6 0 1 .4 1 1zm-41.3 19.6c-.3.3-1.2.4-1.9.1-.8-.3-.5-.6.6-.6 1.1-.1 1.7.2 1.3.5zm2.6 5.4c-1.7.4-4.9.4-7 0-3.2-.6-2.6-.8 3.2-.8 5.3 0 6.2.2 3.8.8zm-17.2 2.4c5.5 4.7 21 4.5 27.8-.3 3.5-2.5 4.1-2 4.1 3.4 0 7-8.5 18-13.4 17.3-1.9-.3-2.1-1-2.1-6.8l-.1-6.5-3.7-.1c-3.4-.1-4.8.8-2.9 2 .7.4.8 4.2.3 10.3-.3 3.9-6.7-.7-11.7-8.3-2.7-4-3.8-13.4-1.7-13.4.3 0 1.8 1.1 3.4 2.4zm14.7-.4c5.9 0 8.2.3 7.2 1-4.3 2.7-16.7 1.9-18.6-1.2-.5-.8-.2-.9 1-.5 1 .4 5.7.7 10.4.7zM2.3 62.5c.4 10.9.7 37.9.7 60v40.3l24.3 16.5 24.2 16.6.2-23.7c.2-13 0-40.1-.5-60.1l-.7-36.5L28 60.2C15.6 51.8 4.6 44.4 3.6 43.8c-1.9-1-1.9-.5-1.3 18.7zM173.4 59.4l-24.2 16.5-.7 51.3c-.3 28.2-.5 55.2-.3 60.1l.3 8.7 24.1-16.5 24.2-16.5.7-58.2c.4-32.1.6-59.1.4-60.1-.3-1.5-5.1 1.4-24.5 14.7z"/></svg>